<svg xmlns="http://www.w3.org/2000/svg" xmlns:xlink="http://www.w3.org/1999/xlink" version="1.1" width="200px" height="200px" style="shape-rendering:geometricPrecision; text-rendering:geometricPrecision; image-rendering:optimizeQuality; fill-rule:evenodd; clip-rule:evenodd">
<g><path style="opacity:0.979" fill="#fcfcfc" d="M 85.5,-0.5 C 94.8333,-0.5 104.167,-0.5 113.5,-0.5C 161.167,9.16667 189.833,37.8333 199.5,85.5C 199.5,94.8333 199.5,104.167 199.5,113.5C 189.833,161.167 161.167,189.833 113.5,199.5C 104.167,199.5 94.8333,199.5 85.5,199.5C 37.8333,189.833 9.16667,161.167 -0.5,113.5C -0.5,104.167 -0.5,94.8333 -0.5,85.5C 9.16667,37.8333 37.8333,9.16667 85.5,-0.5 Z"/></g>
<g><path style="opacity:1" fill="#090909" d="M 47.5,39.5 C 63.8643,38.4081 79.531,41.0748 94.5,47.5C 95.8333,83.8333 95.8333,120.167 94.5,156.5C 71.2892,146.646 47.7892,145.98 24,154.5C 20.9397,154.775 18.9397,153.442 18,150.5C 17.3333,117.5 17.3333,84.5 18,51.5C 20.4834,48.4949 23.6501,46.3282 27.5,45C 34.1946,42.8405 40.8612,41.0072 47.5,39.5 Z"/></g>
<g><path style="opacity:1" fill="#070707" d="M 129.5,39.5 C 145.3,39.0777 160.633,41.5777 175.5,47C 178.057,47.6853 179.891,49.1853 181,51.5C 181.667,84.5 181.667,117.5 181,150.5C 178.487,154.212 174.987,155.378 170.5,154C 148.172,145.969 126.172,146.803 104.5,156.5C 103.167,120.167 103.167,83.8333 104.5,47.5C 112.727,43.8785 121.06,41.2118 129.5,39.5 Z"/></g>
<g><path style="opacity:0.999" fill="#f9f9f9" d="M 48.5,50.5 C 57.5413,50.2829 66.5413,50.7829 75.5,52C 79.8842,53.4568 84.0509,55.2901 88,57.5C 88.8244,84.8757 88.6577,112.209 87.5,139.5C 86,139.833 84.5,140.167 83,140.5C 65.896,136.369 48.896,136.703 32,141.5C 30.7387,141.241 29.7387,140.574 29,139.5C 28.3333,111.833 28.3333,84.1667 29,56.5C 35.3823,53.7847 41.8823,51.7847 48.5,50.5 Z"/></g>
<g><path style="opacity:0.999" fill="#f7f7f7" d="M 128.5,50.5 C 139.289,49.9747 149.955,50.8081 160.5,53C 163.89,54.1248 167.057,55.6248 170,57.5C 170.667,84.8333 170.667,112.167 170,139.5C 169.5,140 169,140.5 168.5,141C 158.293,139.283 147.96,138.45 137.5,138.5C 130.207,138.313 123.04,138.979 116,140.5C 114.019,140.371 112.353,139.704 111,138.5C 110.333,111.5 110.333,84.5 111,57.5C 111.833,56.6667 112.667,55.8333 113.5,55C 118.577,53.32 123.577,51.82 128.5,50.5 Z"/></g>
<g><path style="opacity:0.761" fill="#acacac" d="M 62.5,58.5 C 61.8572,69.5524 62.5238,80.2191 64.5,90.5C 63.791,91.404 62.791,91.7373 61.5,91.5C 61.1721,80.3206 61.5054,69.3206 62.5,58.5 Z"/></g>
<g><path style="opacity:1" fill="#020202" d="M 62.5,58.5 C 68.4867,59.4932 74.4867,60.4932 80.5,61.5C 80.5,70.5 80.5,79.5 80.5,88.5C 75.0773,88.5185 69.744,89.1851 64.5,90.5C 62.5238,80.2191 61.8572,69.5524 62.5,58.5 Z"/></g>
<g><path style="opacity:1" fill="#0b0b0b" d="M 129.5,58.5 C 140.731,57.7765 151.731,58.9432 162.5,62C 163.482,69.747 163.815,77.5803 163.5,85.5C 159.121,86.0804 154.788,86.5804 150.5,87C 148.792,84.9565 146.792,83.2899 144.5,82C 150.31,74.9996 149.643,68.6662 142.5,63C 135.017,59.9878 129.517,62.1545 126,69.5C 124.786,74.3434 125.953,78.51 129.5,82C 124.911,84.7547 121.578,88.588 119.5,93.5C 118.167,82.8333 118.167,72.1667 119.5,61.5C 123.071,60.9185 126.404,59.9185 129.5,58.5 Z"/></g>
<g><path style="opacity:1" fill="#0a0a0a" d="M 47.5,59.5 C 49.5,59.5 51.5,59.5 53.5,59.5C 53.5,70.5 53.5,81.5 53.5,92.5C 47.5,93.5 41.5,94.5 35.5,95.5C 35.3335,84.495 35.5002,73.495 36,62.5C 39.6361,60.7665 43.4695,59.7665 47.5,59.5 Z"/></g>
<g><path style="opacity:1" fill="#4b4b4b" d="M 47.5,59.5 C 49.6074,58.5318 51.9407,58.1984 54.5,58.5C 54.8281,70.0123 54.4948,81.3456 53.5,92.5C 53.5,81.5 53.5,70.5 53.5,59.5C 51.5,59.5 49.5,59.5 47.5,59.5 Z"/></g>
<g><path style="opacity:1" fill="#020202" d="M 160.5,94.5 C 161.83,100.295 162.496,106.462 162.5,113C 162.496,119.538 161.83,125.705 160.5,131.5C 156.548,130.728 152.548,130.395 148.5,130.5C 147.791,129.596 146.791,129.263 145.5,129.5C 145.5,118.5 145.5,107.5 145.5,96.5C 150.436,95.4616 155.436,94.7949 160.5,94.5 Z"/></g>
<g><path style="opacity:0.847" fill="#737373" d="M 160.5,94.5 C 161.209,93.596 162.209,93.2627 163.5,93.5C 163.5,106.5 163.5,119.5 163.5,132.5C 162.209,132.737 161.209,132.404 160.5,131.5C 161.83,125.705 162.496,119.538 162.5,113C 162.496,106.462 161.83,100.295 160.5,94.5 Z"/></g>
<g><path style="opacity:1" fill="#0b0b0b" d="M 38.5,131.5 C 36.6122,129.012 35.9455,126.012 36.5,122.5C 48.6488,120.34 54.6488,113.007 54.5,100.5C 63.0876,98.7017 71.7543,97.3684 80.5,96.5C 80.6641,99.1873 80.4974,101.854 80,104.5C 78.2739,103.424 76.4406,103.257 74.5,104C 71.9204,107.158 69.5871,110.492 67.5,114C 63.2467,114.2 59.08,114.7 55,115.5C 54.3333,117.167 54.3333,118.833 55,120.5C 57.6045,122.818 58.7712,125.484 58.5,128.5C 57.6919,128.808 57.0253,129.308 56.5,130C 50.4669,130.302 44.4669,130.802 38.5,131.5 Z"/></g>
<g><path style="opacity:1" fill="#454545" d="M 145.5,96.5 C 145.5,107.5 145.5,118.5 145.5,129.5C 146.791,129.263 147.791,129.596 148.5,130.5C 147.167,130.5 145.833,130.5 144.5,130.5C 144.172,118.988 144.505,107.654 145.5,96.5 Z"/></g>
<g><path style="opacity:1" fill="#040404" d="M 130.5,98.5 C 132.5,98.5 134.5,98.5 136.5,98.5C 136.5,109.167 136.5,119.833 136.5,130.5C 130.464,130.36 124.464,130.693 118.5,131.5C 118.334,121.494 118.5,111.494 119,101.5C 123.003,100.819 126.837,99.8186 130.5,98.5 Z"/></g>
<g><path style="opacity:1" fill="#080808" d="M 39.5,113.5 C 38.5,113.5 37.5,113.5 36.5,113.5C 36.2529,110.061 36.5863,106.728 37.5,103.5C 40.4552,102.841 43.4552,102.508 46.5,102.5C 46.9371,107.964 44.6037,111.631 39.5,113.5 Z"/></g>
<g><path style="opacity:0.847" fill="#767676" d="M 37.5,103.5 C 36.5863,106.728 36.2529,110.061 36.5,113.5C 37.5,113.5 38.5,113.5 39.5,113.5C 38.4324,114.434 37.099,114.768 35.5,114.5C 34.9197,110.351 35.5864,106.684 37.5,103.5 Z"/></g>
<g><path style="opacity:1" fill="#080808" d="M 77.5,113.5 C 78.4584,113.953 79.2917,114.619 80,115.5C 80.4994,120.823 80.666,126.156 80.5,131.5C 76.7852,131.577 73.1185,131.244 69.5,130.5C 69.3274,127.821 68.3274,125.487 66.5,123.5C 68.0777,122.702 69.7444,122.202 71.5,122C 73.7195,119.287 75.7195,116.454 77.5,113.5 Z"/></g>
<g><path style="opacity:0.847" fill="#757575" d="M 36.5,122.5 C 35.9455,126.012 36.6122,129.012 38.5,131.5C 37.791,132.404 36.791,132.737 35.5,132.5C 35.1872,128.958 35.5206,125.625 36.5,122.5 Z"/></g>
</svg>